<?xml version="1.0" standalone="no"?>
<!DOCTYPE svg PUBLIC "-//W3C//DTD SVG 20010904//EN"
 "http://www.w3.org/TR/2001/REC-SVG-20010904/DTD/svg10.dtd">
<svg version="1.0" xmlns="http://www.w3.org/2000/svg"
 width="100.000000pt" height="100.000000pt" viewBox="0 0 100.000000 100.000000"
 preserveAspectRatio="xMidYMid meet">
<metadata>
Created by potrace 1.11, written by Peter Selinger 2001-2013
</metadata>
<g transform="translate(0.000000,100.000000) scale(0.100000,-0.100000)"
fill="#000000" stroke="none">
<path d="M380 984 c-172 -45 -301 -168 -356 -338 -42 -132 -20 -298 57 -417
64 -100 186 -187 299 -213 303 -71 592 138 617 448 17 221 -121 432 -333 507
-76 27 -208 33 -284 13z m233 -181 c130 -47 196 -200 142 -331 -31 -77 -163
-168 -205 -142 -14 9 -20 98 -9 121 5 9 20 20 34 23 31 8 65 60 65 99 0 94
-116 140 -181 71 -23 -25 -24 -32 -29 -228 -6 -227 -8 -236 -69 -236 -75 0
-76 3 -75 232 1 187 3 207 23 254 54 125 179 182 304 137z"/>
</g>
</svg>
