<?xml version="1.0" standalone="no"?>
<!DOCTYPE svg PUBLIC "-//W3C//DTD SVG 20010904//EN"
 "http://www.w3.org/TR/2001/REC-SVG-20010904/DTD/svg10.dtd">
<svg version="1.0" xmlns="http://www.w3.org/2000/svg"
 width="320.000000pt" height="320.000000pt" viewBox="0 0 320.000000 320.000000"
 preserveAspectRatio="xMidYMid meet">
<metadata>
Created by potrace 1.11, written by Peter Selinger 2001-2013
</metadata>
<g transform="translate(0.000000,320.000000) scale(0.100000,-0.100000)"
fill="#000000" stroke="none">
<path d="M1458 3195 c-2 -1 -25 -5 -53 -9 -301 -35 -591 -161 -830 -360 -313
-261 -507 -622 -564 -1046 -13 -98 -6 -343 13 -447 34 -191 117 -418 196 -538
11 -16 24 -39 29 -50 39 -87 257 -325 383 -417 213 -156 479 -273 694 -303 21
-3 53 -8 69 -12 17 -3 93 -7 170 -8 226 -4 384 22 581 94 335 123 629 359 804
646 129 210 209 436 238 663 9 73 8 321 -1 391 -58 427 -268 795 -614 1071
-146 117 -433 252 -605 285 -10 2 -21 6 -26 8 -4 3 -34 8 -67 12 -32 3 -63 9
-68 12 -9 6 -343 13 -349 8z"/>
</g>
</svg>
